<?xml version="1.0" encoding="utf-8"?>
<!-- Generator: Adobe Illustrator 23.0.0, SVG Export Plug-In . SVG Version: 6.00 Build 0)  -->
<svg version="1.1" id="レイヤー_1" xmlns="http://www.w3.org/2000/svg" xmlns:xlink="http://www.w3.org/1999/xlink" x="0px"
	 y="0px" viewBox="0 0 30.1 252.3" style="enable-background:new 0 0 30.1 252.3;" xml:space="preserve">
<style type="text/css">
	.st0{enable-background:new    ;}
	.st1{fill:#0F234A;}
	.st2{fill:#09898D;}
</style>
<title>trial</title>
<g>
	<g class="st0">
		<path class="st1" d="M20.1,101.5c-0.5-0.2-0.9-0.4-1.3-0.8c-0.4-0.3-0.7-0.7-0.9-1.1s-0.5-0.8-0.6-1.3c-0.2-0.4-0.3-0.9-0.4-1.4
			c-0.1-0.5-0.1-1-0.2-1.5c0-0.5-0.1-1-0.1-1.5c0-0.5,0-0.9,0-1.3c-0.5,0-1,0-1.3,0c-0.4,0-0.7,0-0.9,0s-0.5,0-0.8,0
			c-0.2,0-0.5,0-0.8,0c-0.5,0-1,0-1.3,0c-0.4,0-0.7,0.1-0.9,0.3c-0.2,0.1-0.4,0.4-0.6,0.7s-0.3,0.9-0.4,1.5H9.4v-7.7h0.2
			c0.1,0.4,0.2,0.8,0.3,1.2c0.1,0.4,0.3,0.7,0.6,0.9c0.1,0.1,0.2,0.1,0.4,0.2c0.2,0,0.4,0.1,0.6,0.1c0.2,0,0.5,0,0.8,0.1
			c0.3,0,0.5,0,0.8,0c0.2,0,0.5,0,0.9,0c0.4,0,0.8,0,1.3,0c0.5,0,0.9,0,1.4,0c0.5,0,1,0,1.4,0h4.7c0.3,0,0.6,0,0.9,0
			c0.3,0,0.6,0,0.8,0c0.3,0,0.5-0.1,0.7-0.1s0.4-0.1,0.5-0.2c0.3-0.2,0.4-0.5,0.5-0.9c0.1-0.4,0.2-0.8,0.2-1.2h0.2
			c0,0.1,0,0.3,0,0.6c0,0.3,0,0.7,0,1.1c0,0.4,0,0.9,0,1.3c0,0.5,0,1,0,1.4c0,0.5,0,0.9,0,1.3c0,0.4,0,0.8,0,1.1
			c0,1.1-0.1,2-0.2,2.8c-0.1,0.8-0.4,1.6-0.8,2.3c-0.4,0.7-0.9,1.3-1.6,1.8c-0.7,0.5-1.5,0.7-2.5,0.7
			C21.1,101.8,20.5,101.7,20.1,101.5z M24.3,98.5c0.7-0.5,1.3-1.1,1.6-1.9c0.2-0.4,0.3-0.8,0.4-1.2c0.1-0.4,0.1-0.9,0.1-1.3
			c0-0.3,0-0.6,0-0.8c0-0.2,0-0.3-0.1-0.4c-0.1,0-0.2,0-0.3-0.1s-0.2,0-0.3-0.1c-0.1,0-0.3,0-0.5,0c-0.2,0-0.5,0-0.9,0
			c-0.6,0-1.2,0-2,0c-0.8,0-1.6,0-2.4,0c-0.8,0-1.4,0-2,0s-0.9,0-1.1,0c0,0.7,0,1.3,0.1,1.8s0.1,1.1,0.3,1.6c0.4,1,0.9,1.8,1.7,2.4
			c0.8,0.5,1.7,0.8,2.7,0.8C22.7,99.2,23.5,99,24.3,98.5z"/>
		<path class="st1" d="M9.4,117.7h0.2c0,0,0,0.2,0,0.3s0.1,0.4,0.2,0.6c0.1,0.2,0.2,0.4,0.3,0.5c0.1,0.2,0.3,0.2,0.6,0.2
			c0.1,0,0.4,0,0.7-0.1c0.3-0.1,0.7-0.2,1.2-0.4c0.5-0.2,1-0.3,1.6-0.6s1.2-0.4,1.8-0.7v-6.4c-0.6-0.2-1.2-0.5-1.7-0.7
			s-1.1-0.4-1.7-0.7c-0.9-0.3-1.5-0.5-1.8-0.5c-0.2,0-0.4,0.1-0.5,0.2c-0.1,0.1-0.2,0.3-0.3,0.5c-0.1,0.2-0.2,0.4-0.2,0.6
			c0,0.2-0.1,0.5-0.1,0.7H9.4v-5.1h0.3c0,0.4,0.2,0.8,0.3,1.1s0.3,0.5,0.4,0.5c0.1,0.1,0.4,0.3,0.8,0.6c0.4,0.3,1,0.6,1.8,0.9
			c0.8,0.3,1.6,0.7,2.6,1.1c1,0.4,1.9,0.8,3,1.3s2,0.9,3.1,1.3s2,0.8,2.9,1.2l0.5-0.2c0.1,0.3,0.3,0.5,0.5,0.8
			c0.2,0.2,0.4,0.4,0.6,0.6c0.2,0.2,0.4,0.3,0.6,0.4c0.2,0.1,0.3,0.2,0.4,0.3v0.2c-1.3,0.5-2.6,1-3.8,1.4c-1.2,0.4-2.3,0.9-3.4,1.3
			c-1.1,0.4-2.2,0.8-3.2,1.2c-1,0.4-2.1,0.8-3.1,1.2c-0.5,0.2-0.9,0.3-1.2,0.5c-0.3,0.2-0.7,0.3-1.1,0.5c-0.1,0-0.2,0.1-0.3,0.2
			c-0.2,0.1-0.3,0.3-0.5,0.4c-0.2,0.2-0.3,0.4-0.4,0.7c-0.1,0.3-0.2,0.6-0.2,1H9.4V117.7z M23.9,114.6c-0.2-0.1-0.5-0.2-1-0.4
			c-0.4-0.2-1-0.4-1.6-0.7c-0.6-0.3-1.4-0.6-2.2-0.9s-1.7-0.7-2.6-1.1v6c0.7-0.3,1.4-0.5,2.2-0.8s1.4-0.6,2.1-0.8
			c0.7-0.3,1.3-0.5,1.8-0.7C23.1,114.9,23.6,114.7,23.9,114.6z"/>
		<path class="st1" d="M17.2,146.9c-0.1-0.3-0.3-0.6-0.5-0.7c-0.2-0.1-0.4-0.2-0.8-0.2c-0.4,0-0.7,0-1.1,0h-3.5
			c-0.1-0.1-0.3-0.4-0.5-0.8c-0.2-0.4-0.5-1-0.7-1.6c-0.2-0.6-0.4-1.3-0.6-2.1c-0.2-0.8-0.2-1.5-0.2-2.3c0-1.5,0.2-2.9,0.6-4.1
			c0.4-1.2,1-2.2,1.7-3c0.8-0.8,1.7-1.5,2.8-1.9c1.1-0.4,2.3-0.7,3.7-0.7c0.4,0,0.9,0,1.4,0.1c0.5,0.1,1.1,0.2,1.6,0.4
			c0.6,0.2,1.2,0.5,1.8,0.8c0.6,0.4,1.2,0.8,1.7,1.4c0.8,0.8,1.4,1.7,1.8,2.8c0.5,1.1,0.7,2.5,0.7,4.1c0,1-0.1,1.8-0.3,2.5
			s-0.4,1.4-0.6,1.9s-0.4,0.9-0.6,1.2c-0.2,0.3-0.3,0.4-0.3,0.5s0.1,0.1,0.3,0.3s0.4,0.3,0.7,0.5v0.2h-5.2v-0.3
			c0.7-0.2,1.4-0.4,2-0.8c0.6-0.4,1.2-0.7,1.6-1.1c0.5-0.5,1-1.2,1.3-2c0.3-0.8,0.5-1.7,0.5-2.7c0-1.1-0.2-2-0.7-2.9
			c-0.5-0.8-1.1-1.6-1.9-2.2c-0.8-0.6-1.7-1-2.7-1.4c-1-0.3-2.1-0.5-3.3-0.5c-1.2,0-2.4,0.2-3.4,0.5c-1,0.3-1.9,0.7-2.7,1.3
			c-0.7,0.6-1.3,1.3-1.7,2.1c-0.4,0.8-0.6,1.8-0.6,2.9c0,0.8,0.1,1.5,0.4,2.1c0.3,0.7,0.7,1.2,1.3,1.6c0.2,0.1,0.6,0.2,1.1,0.3
			c0.5,0.1,1.1,0.1,1.6,0.1c0.6,0,1.1,0,1.5-0.1c0.4-0.1,0.8-0.2,1.1-0.5c0.4-0.4,0.7-1,0.7-1.9h0.2v7h-0.2
			C17.3,147.5,17.3,147.2,17.2,146.9z"/>
		<path class="st1" d="M9.4,169v-14.7h0.2c0.1,0.4,0.2,0.8,0.3,1.1c0.1,0.3,0.3,0.6,0.6,0.9c0.1,0.1,0.2,0.1,0.4,0.2
			c0.2,0,0.4,0.1,0.6,0.1s0.5,0.1,0.8,0.1s0.5,0,0.8,0c0.2,0,0.5,0,0.9,0s0.8,0,1.3,0s0.9,0,1.4,0c0.5,0,1,0,1.4,0h4.7
			c0.3,0,0.6,0,0.9,0c0.3,0,0.6,0,0.9,0c0.3,0,0.5-0.1,0.7-0.1c0.2-0.1,0.4-0.1,0.5-0.2c0.3-0.2,0.4-0.5,0.5-0.8
			c0.1-0.3,0.1-0.6,0.2-1.1h0.2v13.2l-4,1.6l-0.1-0.2c1.6-1.3,2.7-2.5,3.3-3.6c0.1-0.3,0.2-0.8,0.3-1.5c0.1-0.7,0.1-1.6,0.1-2.7
			c0-0.3,0-0.7,0-1c0-0.4-0.1-0.6-0.1-0.8c-0.3,0-0.8-0.1-1.6-0.1c-0.8,0-1.7,0-2.8,0c-0.6,0-1.1,0-1.5,0s-0.8,0-1,0
			c-0.3,0-0.5,0-0.6,0c-0.1,0-0.2,0-0.3,0c0,0.1,0,0.2,0,0.5s0,0.5,0,0.8c0,0.3,0,0.6,0.1,0.9c0,0.3,0.1,0.6,0.1,0.8
			c0.1,0.5,0.3,0.9,0.5,1.2c0.2,0.3,0.4,0.6,0.7,0.8c0.3,0.2,0.6,0.4,0.9,0.5c0.4,0.1,0.8,0.2,1.2,0.3v0.3h-7.6v-0.3
			c0.5-0.1,1-0.3,1.6-0.6c0.5-0.3,1-0.5,1.2-0.8c0.2-0.3,0.4-0.6,0.6-0.9c0.1-0.4,0.2-0.8,0.3-1.3c0-0.2,0-0.4,0-0.6
			c0-0.2,0-0.3,0-0.5c0-0.1,0-0.3,0-0.5c0-0.2,0-0.4,0-0.6c-0.2,0-0.6,0-1,0c-0.4,0-0.9,0-1.3,0c-0.2,0-0.4,0-0.7,0s-0.5,0-0.8,0
			c-0.3,0-0.5,0-0.7,0c-0.2,0-0.4,0-0.6,0c-0.5,0-1,0-1.5,0.1s-0.8,0.1-1,0.3c-0.2,0.1-0.4,0.5-0.5,1c-0.1,0.5-0.1,1.1-0.1,1.8
			c0,0.3,0,0.6,0,1c0,0.4,0.1,0.9,0.1,1.3c0.1,0.5,0.2,1,0.4,1.4c0.2,0.4,0.4,0.8,0.8,1.2s0.7,0.8,1.2,1.2s1.1,0.8,1.8,1.2l-0.1,0.3
			L9.4,169z"/>
		<path class="st1" d="M22.2,202.9c0.3-0.1,0.6-0.3,0.9-0.5c0.3-0.2,0.6-0.4,0.9-0.5c0.3-0.2,0.5-0.4,0.8-0.5
			c0.2-0.2,0.4-0.3,0.5-0.5c0.3-0.3,0.5-0.7,0.6-1.1c0.1-0.4,0.2-0.9,0.2-1.5c0-0.3,0-0.6,0-0.8c0-0.2,0-0.4,0-0.7
			c0-0.2,0-0.4,0-0.7c0-0.2,0-0.5,0-0.9c-0.4,0-0.9,0-1.6,0c-0.7,0-1.4,0-2.2,0c-0.8,0-1.5,0-2.2,0c-0.7,0-1.3,0-1.8,0h-5.3
			c-0.5,0-0.9,0-1.3,0c-0.4,0-0.7,0.1-0.9,0.2c-0.4,0.2-0.6,0.6-0.7,1c-0.1,0.4-0.2,0.8-0.3,1.2H9.4v-7.8h0.2c0,0.4,0.1,0.8,0.2,1.2
			c0.1,0.4,0.4,0.8,0.8,1.1c0.1,0.1,0.2,0.1,0.4,0.2c0.2,0,0.4,0.1,0.6,0.1c0.2,0,0.5,0,0.8,0s0.5,0,0.8,0c0.2,0,0.5,0,0.9,0
			s0.8,0,1.2,0c0.4,0,0.9,0,1.4,0c0.5,0,0.9,0,1.4,0H26c0-0.3,0-0.6,0-0.9c0-0.2,0-0.5,0-0.7c0-0.2,0-0.4,0-0.7c0-0.2,0-0.5,0-0.8
			c0-0.6-0.1-1.1-0.2-1.5s-0.4-0.8-0.7-1.1c-0.1-0.1-0.3-0.3-0.5-0.4c-0.2-0.2-0.5-0.3-0.7-0.5c-0.3-0.2-0.5-0.4-0.9-0.5
			c-0.3-0.2-0.6-0.3-0.9-0.4l0.1-0.2l4.6,0.7c-0.1,0.4-0.1,0.7-0.2,1s-0.1,0.8-0.1,1.4c0,0.6,0,1.2,0,1.6c0,0.5,0,0.9,0,1.4
			c0,0.4,0,0.9,0,1.4c0,0.5,0,1,0,1.6c0,0.6,0,1.1,0,1.6c0,0.5,0,0.9,0,1.4c0,0.4,0,0.9,0,1.4c0,0.5,0,1,0,1.6c0,0.5,0.1,1,0.1,1.3
			c0.1,0.3,0.2,0.7,0.3,1.1l-4.7,0.8L22.2,202.9z"/>
		<path class="st1" d="M14.6,225.5c-1.1-0.5-2-1.1-2.8-2c-0.8-0.8-1.4-1.8-1.8-2.9c-0.4-1.1-0.6-2.3-0.6-3.5c0-1.2,0.2-2.4,0.6-3.5
			c0.4-1.1,1-2,1.8-2.9c0.8-0.8,1.7-1.5,2.8-1.9s2.3-0.7,3.6-0.7c1.4,0,2.6,0.2,3.7,0.7c1.1,0.5,2,1.2,2.8,2c0.8,0.8,1.3,1.8,1.8,3
			s0.6,2.3,0.6,3.6c0,1.4-0.2,2.6-0.7,3.7c-0.5,1.1-1.1,2-1.9,2.7c-0.8,0.8-1.7,1.3-2.8,1.7c-1.1,0.4-2.2,0.6-3.3,0.6
			C16.9,226.3,15.7,226,14.6,225.5z M21.1,222.9c1-0.2,1.9-0.6,2.7-1.1s1.5-1.1,2-1.9c0.5-0.8,0.8-1.6,0.8-2.7c0-1-0.3-1.9-0.8-2.7
			c-0.5-0.8-1.2-1.4-2-1.9c-0.8-0.5-1.7-0.8-2.7-1.1s-2-0.3-3.1-0.3c-1.1,0-2.1,0.1-3.1,0.4s-1.9,0.6-2.7,1.1
			c-0.8,0.5-1.4,1.1-1.8,1.9s-0.7,1.6-0.7,2.7s0.3,1.9,0.8,2.6s1.2,1.4,2,1.9c0.8,0.5,1.7,0.9,2.7,1.1c1,0.2,2,0.4,3,0.4
			C19.1,223.3,20.1,223.2,21.1,222.9z"/>
		<path class="st1" d="M20.1,246.7c-0.5-0.2-0.9-0.4-1.3-0.8c-0.4-0.3-0.7-0.7-0.9-1.1s-0.5-0.8-0.6-1.3c-0.2-0.4-0.3-0.9-0.4-1.4
			c-0.1-0.5-0.1-1-0.2-1.5s-0.1-1-0.1-1.5c0-0.5,0-0.9,0-1.3c-0.5,0-1,0-1.3,0c-0.4,0-0.7,0-0.9,0s-0.5,0-0.8,0c-0.2,0-0.5,0-0.8,0
			c-0.5,0-1,0-1.3,0s-0.7,0.1-0.9,0.3c-0.2,0.1-0.4,0.4-0.6,0.7c-0.2,0.4-0.3,0.9-0.4,1.5H9.4v-7.7h0.2c0.1,0.4,0.2,0.8,0.3,1.2
			c0.1,0.4,0.3,0.7,0.6,0.9c0.1,0.1,0.2,0.1,0.4,0.2c0.2,0,0.4,0.1,0.6,0.1c0.2,0,0.5,0,0.8,0.1c0.3,0,0.5,0,0.8,0
			c0.2,0,0.5,0,0.9,0c0.4,0,0.8,0,1.3,0c0.5,0,0.9,0,1.4,0c0.5,0,1,0,1.4,0h4.7c0.3,0,0.6,0,0.9,0c0.3,0,0.6,0,0.8,0
			c0.3,0,0.5-0.1,0.7-0.1c0.2-0.1,0.4-0.1,0.5-0.2c0.3-0.2,0.4-0.5,0.5-0.9c0.1-0.4,0.2-0.8,0.2-1.2h0.2c0,0.1,0,0.3,0,0.6
			c0,0.3,0,0.7,0,1.1s0,0.9,0,1.3s0,1,0,1.4c0,0.5,0,0.9,0,1.3c0,0.4,0,0.8,0,1.1c0,1.1-0.1,2-0.2,2.8c-0.1,0.8-0.4,1.6-0.8,2.3
			c-0.4,0.7-0.9,1.3-1.6,1.8s-1.5,0.7-2.5,0.7C21.1,247,20.5,246.9,20.1,246.7z M24.3,243.7c0.7-0.5,1.3-1.1,1.6-1.9
			c0.2-0.4,0.3-0.8,0.4-1.2c0.1-0.4,0.1-0.9,0.1-1.3c0-0.3,0-0.6,0-0.8c0-0.2,0-0.3-0.1-0.4c-0.1,0-0.2,0-0.3-0.1
			c-0.1,0-0.2,0-0.3-0.1s-0.3,0-0.5,0c-0.2,0-0.5,0-0.9,0c-0.6,0-1.2,0-2,0c-0.8,0-1.6,0-2.4,0c-0.8,0-1.4,0-2,0s-0.9,0-1.1,0
			c0,0.7,0,1.3,0.1,1.8s0.1,1.1,0.3,1.6c0.4,1,0.9,1.8,1.7,2.4c0.8,0.5,1.7,0.8,2.7,0.8C22.7,244.4,23.5,244.2,24.3,243.7z"/>
	</g>
	<rect x="10.1" y="0.7" class="st2" width="2" height="70"/>
	<polygon class="st2" points="11.5,0 25,14.8 23.5,16.2 10.1,1.3 10.7,0.7 	"/>
	<polyline class="st2" points="10.1,0 11.5,0 10.7,0.7 10.1,0.7 	"/>
</g>
</svg>
